<svg width="24" height="24" fill="none" xmlns="http://www.w3.org/2000/svg"><path d="M23.648 22.034l-7.608-7.608a8.71 8.71 0 001.82-5.356c0-2.35-.918-4.552-2.576-6.214A8.724 8.724 0 009.07.281a8.736 8.736 0 00-6.214 2.575A8.72 8.72 0 00.281 9.07c0 2.347.917 4.556 2.575 6.214A8.72 8.72 0 009.07 17.86a8.718 8.718 0 005.353-1.816l7.608 7.605a.239.239 0 00.34 0l1.277-1.274a.24.24 0 000-.34zm-9.937-8.323a6.527 6.527 0 01-4.64 1.922A6.527 6.527 0 014.43 13.71a6.527 6.527 0 01-1.922-4.64c0-1.753.682-3.402 1.922-4.641a6.527 6.527 0 014.64-1.922 6.51 6.51 0 014.64 1.922 6.527 6.527 0 011.923 4.64 6.522 6.522 0 01-1.922 4.64z" fill="#fff"/></svg>